# xmcd CD database file
#
# Track frame offsets:
#	150
#	19199
#	38851
#	84115
#	106003
#	125575
#	141384
#	154931
#	168751
#	186364
#	200964
#
# Disc length: 2873 seconds
#
# Revision: 0
# Processed by: cddbd v1.5.2PL0 Copyright (c) Steve Scherf et al.
# Submitted via: CDex 1.50Beta3
#
DISCID=920b370b
DTITLE=Charles Mingus - Mysterious Blues [CD8]
DYEAR=1900
DGENRE=Jazz
TTITLE0=Abstractions
TTITLE1=Embraceable you
TTITLE2=Minor Instrusions
TTITLE3=Cherokee
TTITLE4=Embraceable you
TTITLE5=He's Gone
TTITLE6=Have you met Miss Jones
TTITLE7=I Remember you
TTITLE8=Jubilee
TTITLE9=Paris in Blue
TTITLE10=Pipe Dream
EXTD=
EXTT0=
EXTT1=
EXTT2=
EXTT3=
EXTT4=
EXTT5=
EXTT6=
EXTT7=
EXTT8=
EXTT9=
EXTT10=
PLAYORDER=
